<?xml version="1.0" encoding="utf-8"?>
<!-- Generator: Adobe Illustrator 22.0.1, SVG Export Plug-In . SVG Version: 6.00 Build 0)  -->
<svg version="1.1" xmlns="http://www.w3.org/2000/svg" xmlns:xlink="http://www.w3.org/1999/xlink" x="0px" y="0px"
	 viewBox="0 0 512 512" style="enable-background:new 0 0 512 512;" xml:space="preserve">
<style type="text/css">
	.st0{display:none;}
	.st1{display:inline;}
	.st2{fill:#CECECE;}
</style>
<g id="Layer_1" class="st0">
	<g class="st1">
		<path class="st2" d="M250.7,32v0.8c3.6-0.4,7.1-0.6,10.6-0.8H250.7z"/>
		<path class="st2" d="M464,32H48C21.5,32,0,53.5,0,80v112h10.6c12.5-0.6,24.7,0,37.4,0h416h48V80C512,53.5,490.5,32,464,32z
			 M96,144c-17.7,0-32-14.3-32-32s14.3-32,32-32s32,14.3,32,32S113.7,144,96,144z M192,144c-17.7,0-32-14.3-32-32s14.3-32,32-32
			s32,14.3,32,32S209.7,144,192,144z M288,144c-17.7,0-32-14.3-32-32s14.3-32,32-32s32,14.3,32,32S305.7,144,288,144z"/>
		<path class="st2" d="M237.3,32.3h37.4C261.9,32.3,249.8,31.7,237.3,32.3z"/>
		<polyline class="st2" points="46.7,159 1,160.3 0,160.5 0,258.6 48,264.5 		"/>
		<path class="st2" d="M-0.2,254.5c0,25.7,21.5,46.5,48,46.5h416.4c26.5,0,48-20.8,48-46.5V142h-48v18.3l0,0
			c12.4-3.3,23.7-3.2,35-6.3c-11,3-22,3-34,6c-0.3,0.1-0.7,0.1-1,0.2v88.9c0,3.2-2.7,5.8-6,5.8h-404c-3.3,0-6-2.6-6-5.8V151"/>
	</g>
</g>
<g id="Layer_3" class="st0">
</g>
<g id="Layer_2">
	<path class="st2" d="M465,32H49C22.5,32,1,53.5,1,80v352c0,26.5,21.5,48,48,48h416c26.5,0,48-21.5,48-48V80
		C513,53.5,491.5,32,465,32z M257,112c0-17.7,14.3-32,32-32s32,14.3,32,32s-14.3,32-32,32S257,129.7,257,112z M161,112
		c0-17.7,14.3-32,32-32s32,14.3,32,32s-14.3,32-32,32S161,129.7,161,112z M65,112c0-17.7,14.3-32,32-32s32,14.3,32,32
		s-14.3,32-32,32S65,129.7,65,112z M465,426c0,3.3-2.7,6-6,6H55c-3.3,0-6-2.7-6-6V192h416V426z"/>
</g>
</svg>
